<svg width="102" height="120" viewBox="0 0 102 120" fill="none" xmlns="http://www.w3.org/2000/svg">
<path d="M21.0525 0.44352C14.6795 2.01888 7.51875 7.53262 3.93839 13.6908C0.214821 20.0639 0 22.3553 0 59.3762C0 81.9324 0.286428 94.8217 0.787678 97.328C3.22232 108.713 12.1016 117.235 23.9168 119.455C26.4946 119.884 37.4505 120.099 53.2041 119.956C76.906 119.741 78.6246 119.598 82.1334 118.166C91.2275 114.514 97.7437 106.995 99.8203 97.9724C101.467 90.8833 101.539 28.7283 99.9635 25.7208C99.3907 24.6467 93.5905 18.4885 87.0743 11.9723L75.1875 0.157089L49.1941 0.0138779C34.9443 -0.0577316 22.2698 0.157089 21.0525 0.44352ZM68.7428 17.3428C68.9577 22.4269 69.3873 27.0814 69.7453 27.6542C71.1059 29.7308 75.1159 30.5901 83.7803 30.5901H92.3732V63.0281C92.3732 100.264 92.4448 99.9058 86.6446 105.778C80.916 111.435 80.4148 111.506 50.4114 111.506C21.697 111.506 20.9093 111.435 15.3239 106.852C13.677 105.491 11.4571 102.698 10.4546 100.622L8.59285 96.8983V60.2355C8.59285 20.0639 8.59285 20.2787 12.8893 14.8365C14.1782 13.1896 16.8993 11.113 19.4771 9.82405L23.9168 7.67583L46.115 7.81905L68.3848 8.03387L68.7428 17.3428ZM83.0643 15.9107L89.1509 21.9973H82.4914H75.9035V15.9107C75.9035 12.5451 76.1184 9.82405 76.4764 9.82405C76.7628 9.82405 79.6987 12.5451 83.0643 15.9107Z" fill="black"/>
<path d="M19.2623 24.5752C18.6179 25.3628 18.5462 26.0073 19.1191 26.8666C19.7636 27.9407 21.697 28.0839 35.5171 28.0839H51.1991L51.4139 26.3653C51.5571 25.4344 51.2707 24.3603 50.6978 24.0739C50.1966 23.7159 43.1075 23.4294 35.0159 23.4294C22.413 23.4294 20.1216 23.5727 19.2623 24.5752Z" fill="black"/>
<path d="M19.2623 36.7484C18.6179 37.536 18.5462 38.1805 19.1191 39.0398C19.7636 40.1139 22.3414 40.2571 43.752 40.4719C65.3057 40.6151 67.7403 40.5435 68.528 39.4694C69.1725 38.6101 69.1725 37.8941 68.6712 36.9632C68.0268 35.6743 66.6662 35.6026 44.11 35.6026C23.2007 35.6026 20.1216 35.7459 19.2623 36.7484Z" fill="black"/>
<path d="M18.9043 49.3512C17.9734 52.5019 19.7636 52.8599 36.09 52.6451C48.9077 52.4303 51.1275 52.2871 51.7719 51.2846C52.2016 50.6401 52.2732 49.566 52.0584 48.9216C51.6287 47.9191 49.7669 47.7758 35.5171 47.7758C19.6203 47.7758 19.4055 47.7758 18.9043 49.3512Z" fill="black"/>
<path d="M64.4464 52.7883V55.6526H73.4689H82.4198L82.205 52.9316L81.9902 50.2821L73.2541 50.0673L64.4464 49.8525V52.7883Z" fill="black"/>
<path d="M56.5696 60.3071V63.5294L69.3157 63.3862L81.9902 63.1714V60.3071V57.4428L69.3157 57.228L56.5696 57.0848V60.3071Z" fill="black"/>
<path d="M19.7636 60.3787C19.1191 60.9516 18.6179 61.7392 18.6179 62.0973C18.6179 62.4553 19.1191 63.243 19.7636 63.8158C20.6229 64.7467 22.6995 64.9616 30.3614 64.9616C39.0975 64.9616 39.9568 64.8183 41.2457 63.4578C42.6062 61.9541 42.5346 61.9541 40.8877 60.5935C39.4555 59.4478 38.0234 59.233 30.075 59.233C22.6279 59.233 20.6229 59.4478 19.7636 60.3787Z" fill="black"/>
<path d="M47.9768 68.5419V72.1223L65.0193 71.9791L81.9902 71.7642V68.5419V65.3196L65.0193 65.1048L47.9768 64.9616V68.5419Z" fill="black"/>
<path d="M19.4771 72.2655C18.3314 73.4112 18.403 73.9125 19.7636 75.273C21.2673 76.8483 23.7736 75.4878 23.4871 73.3396C23.2723 71.5494 20.8377 70.905 19.4771 72.2655Z" fill="black"/>
<path d="M38.6678 77.1348V80.7151H60.508H82.3482V77.1348V73.5544H60.508H38.6678V77.1348Z" fill="black"/>
<path d="M28.6429 86.0857V90.0241H50.8411H73.0393V86.0857V82.1473H50.8411H28.6429V86.0857Z" fill="black"/>
<path d="M19.1191 91.9574C18.8327 92.1723 18.6179 94.3205 18.6179 96.6119V100.765H45.8286H73.1109L72.8961 96.2539L72.6812 91.8142L46.115 91.5994C31.5071 91.5278 19.4055 91.671 19.1191 91.9574Z" fill="black"/>
<path d="M93.8053 2.73498C92.588 4.88319 93.5189 7.60426 95.5239 8.10551C98.1018 8.74998 100.25 7.24623 100.25 4.9548C100.25 2.44855 99.0327 1.23123 96.5264 1.23123C95.3091 1.23123 94.3066 1.73248 93.8053 2.73498Z" fill="#0E2288"/>
</svg>
