<svg width="48" height="48" viewBox="0 0 48 48" fill="none" xmlns="http://www.w3.org/2000/svg">
<g clip-path="url(#clip0_106_865)">
<path d="M20.7772 39.6054L11.7772 40.3854L12.5572 31.3854L31.2771 12.7854C31.5567 12.4997 31.8903 12.2727 32.2587 12.1177C32.6268 11.9626 33.0225 11.8828 33.4221 11.8828C33.8217 11.8828 34.2174 11.9626 34.5858 12.1177C34.9542 12.2727 35.2878 12.4997 35.5671 12.7854L39.3771 16.6254C39.6582 16.9043 39.8814 17.2361 40.0338 17.6017C40.1862 17.9673 40.2645 18.3594 40.2645 18.7554C40.2645 19.1515 40.1862 19.5436 40.0338 19.9092C39.8814 20.2747 39.6582 20.6065 39.3771 20.8854L20.7772 39.6054Z" stroke="#0E2288" stroke-width="3.5" stroke-linecap="round" stroke-linejoin="round"/>
<path d="M2.52507 11.9161C1.47228 11.7329 1.47228 10.2216 2.52506 10.0385C6.33915 9.37491 9.37269 6.46983 10.2006 2.68802L10.264 2.39813C10.4918 1.35764 11.9733 1.35116 12.2102 2.38963L12.2872 2.72746C13.1457 6.49143 16.1801 9.37197 19.9836 10.0337C21.0418 10.2178 21.0418 11.7368 19.9836 11.9209C16.1801 12.5826 13.1457 15.4631 12.2872 19.2271L12.2102 19.5649C11.9733 20.6034 10.4918 20.5969 10.264 19.5564L10.2006 19.2666C9.37269 15.4847 6.33915 12.5797 2.52507 11.9161Z" stroke="#0E2288" stroke-width="3.5" stroke-linecap="round" stroke-linejoin="round"/>
</g>
<defs>
<clipPath id="clip0_106_865">
<rect width="48" height="48" fill="white"/>
</clipPath>
</defs>
</svg>
